<svg width="44" height="42" viewBox="0 0 44 42" fill="none" xmlns="http://www.w3.org/2000/svg">
<path d="M43.4102 21.6798C43.3802 20.4598 43.2902 19.2198 43.0202 18.0298C42.5802 16.1098 41.5402 14.5298 39.5602 13.8998C37.3902 13.2098 35.4502 13.8598 33.7002 15.2098C33.6102 15.2798 33.5302 15.4198 33.5302 15.5198C33.5202 16.8598 33.5202 18.1898 33.5202 19.5198C34.1602 19.3898 34.7302 19.2198 35.3102 19.1698C36.0902 19.0998 36.8202 19.2598 37.2702 19.9998C37.7202 20.7298 38.0002 21.5398 38.0102 22.3898C38.0402 25.6598 38.0402 28.9298 38.0102 32.1898C38.0002 33.6298 37.2402 34.5898 35.9002 35.0498C35.7902 35.0898 35.6302 35.2498 35.6302 35.3498C35.6202 36.9598 35.6402 38.5698 35.6502 40.1798C35.6502 40.4498 35.7602 40.5698 36.0602 40.5698C38.9102 40.5998 41.7702 38.6298 42.7602 35.9198C43.4402 34.0598 43.5202 32.1198 43.5102 30.1698C43.4902 27.3598 43.4902 24.5198 43.4102 21.6798ZM37.7702 7.06982C39.1602 6.91982 40.5602 6.75982 41.9502 6.60982C42.1802 6.58982 42.3002 6.52982 42.3002 6.26982C42.2902 4.64982 42.3002 3.01982 42.3002 1.31982C40.0302 1.57982 37.8402 1.81982 35.6602 2.07982C33.1602 2.36982 30.7102 2.67982 28.2102 2.94982C28.1302 3.97982 28.0502 5.05982 27.9802 6.10982C27.9402 6.76982 27.9102 7.42982 27.8802 8.12982C29.2702 7.97982 30.6002 7.83982 31.9302 7.69982C33.8802 7.48982 35.8202 7.27982 37.7702 7.06982ZM32.2202 23.6998C32.2902 20.9098 32.3502 18.1198 32.4302 15.3398C32.4702 13.7498 32.5402 12.1598 32.5802 10.5598C32.5902 10.0898 32.5802 9.61982 32.5802 9.12982C32.3502 9.12982 32.1902 9.11982 32.0402 9.12982C30.8002 9.18982 29.5602 9.27982 28.3102 9.30982C27.8702 9.31982 27.7702 9.48982 27.7602 9.86982C27.7402 10.7498 27.7002 11.6198 27.6702 12.4998C27.5402 15.9498 27.4102 19.4098 27.2902 22.8598C27.2702 23.3198 27.2902 23.7798 27.2902 24.3198C28.8702 24.2698 30.3802 24.2198 31.9002 24.1698C32.2302 24.1598 32.2202 23.9398 32.2202 23.6998ZM34.1602 34.9998C32.9702 34.8698 32.3502 33.7198 32.3102 32.5998C32.2602 31.2498 32.2302 29.8898 32.2102 28.5398C32.2102 28.1998 32.1102 28.0598 31.7402 28.0698C30.4202 28.1098 29.0902 28.1398 27.7602 28.1498C27.4002 28.1498 27.3402 28.2998 27.3502 28.6098C27.3702 29.4698 27.3602 30.3298 27.3902 31.1898C27.4302 32.5098 27.3902 33.8498 27.5902 35.1498C27.8602 36.8098 28.6702 38.2798 30.0802 39.2498C31.3302 40.1098 32.8002 40.4498 34.4102 40.6398C34.4102 38.7998 34.4102 37.0398 34.4002 35.2698C34.4102 35.1798 34.2602 35.0098 34.1602 34.9998ZM1.14016 20.5898H5.45016C5.45016 19.3098 5.43016 18.0898 5.45016 16.8698C5.50016 14.3798 6.20016 13.6098 8.65016 13.3098C8.70016 13.2998 8.74016 13.2498 8.84016 13.1898V9.11982C5.92016 8.78982 2.71016 10.8398 1.66016 13.6898C0.81016 15.9398 1.26016 18.2698 1.14016 20.5898ZM8.11016 31.1898C6.19016 31.1098 5.62016 30.4998 5.58016 28.5698C5.55016 27.0998 5.58016 25.6298 5.55016 24.1598C5.54016 23.5398 5.47016 22.9098 5.42016 22.2798H1.16016C1.16016 24.5598 1.05016 26.7498 1.18016 28.9298C1.46016 33.3998 3.85016 35.9098 8.05016 36.4198C8.64016 36.4898 8.86016 36.3298 8.84016 35.7398C8.81016 34.4698 8.82016 33.1898 8.84016 31.9198C8.85016 31.3698 8.65016 31.2098 8.11016 31.1898ZM18.8202 15.3498C18.8302 16.2598 18.8302 17.1798 18.8402 18.0898C18.8402 18.7098 18.8402 19.3298 18.8402 19.9398H23.7402C23.7402 17.8298 23.8302 15.8298 23.7102 13.8498C23.6102 12.0798 22.7502 10.6298 21.2202 9.64982C19.6502 8.63982 17.9002 8.48982 16.1002 8.63982C15.9302 8.64982 15.6602 8.91982 15.6502 9.07982C15.6102 10.3698 15.6302 11.6698 15.6302 12.9998C16.0102 13.0198 16.2802 13.0398 16.5502 13.0498C18.1902 13.1098 18.7902 13.7198 18.8202 15.3498ZM9.73016 40.7298H14.5902V4.26982C12.9202 4.44982 11.3302 4.61982 9.73016 4.78982V40.7298ZM23.7802 21.6798C22.3502 21.6798 21.0302 21.6998 19.7102 21.6698C19.0902 21.6498 18.8902 21.8698 18.8902 22.4898C18.9102 24.2398 18.8502 25.9798 18.8602 27.7298C18.8702 29.9598 18.0102 31.1698 15.8802 31.3798C15.8102 31.3898 15.7402 31.4498 15.6802 31.4798V36.0398C19.8702 36.2698 22.5502 34.0398 23.4002 30.8098C24.2102 27.8098 23.6002 24.7598 23.7802 21.6798Z" fill="url(#paint0_linear_15_728)"/>
<defs>
<linearGradient id="paint0_linear_15_728" x1="3.74416" y1="21.0236" x2="43.817" y2="21.0236" gradientUnits="userSpaceOnUse">
<stop offset="0.0344" stop-color="#273580"/>
<stop offset="0.2149" stop-color="#46317C"/>
<stop offset="0.6071" stop-color="#942673"/>
<stop offset="0.8615" stop-color="#CA1E6D"/>
</linearGradient>
</defs>
</svg>
